<svg xmlns="http://www.w3.org/2000/svg" width="76" height="76" viewBox="0 0 76 76">
  <g id="accompagnement" transform="translate(-419 -1197)">
    <g id="Groupe_149" data-name="Groupe 149" transform="translate(-9)">
      <g id="help" transform="translate(439 1122.623)">
        <path id="Tracé_110" data-name="Tracé 110" d="M31.576,126.561,19.2,124.847,14.352,120h0a.46.46,0,0,1,.324-.786.455.455,0,0,1,.323.134h0l3.666,3.666h0c.011.011.022.019.033.03s.031.03.048.043a2.818,2.818,0,0,0,3.905-4.062L12.589,108.96a1.068,1.068,0,0,0-.755-.313H1.068a1.068,1.068,0,0,0,0,2.136H11.392l9.751,9.751a.684.684,0,1,1-.967.967h0l-3.663-3.662h0a2.594,2.594,0,0,0-3.742,3.591l.02.022c.018.019.034.04.053.058h0l5.1,5.1a1.067,1.067,0,0,0,.609.3l12.72,1.761c.24.035.693.2.693.549a.536.536,0,0,1-.537.536H17.2L5.88,118.436a1.068,1.068,0,0,0-.755-.313H1.068a1.068,1.068,0,0,0,0,2.136H4.683l11.322,11.324a1.068,1.068,0,0,0,.755.313H31.429a2.671,2.671,0,0,0,2.672-2.673A2.761,2.761,0,0,0,31.576,126.561Z" transform="translate(0 -7.093)" fill="#008f70"/>
        <path id="Tracé_111" data-name="Tracé 111" d="M165.833,121.49H155.509l-9.751-9.751a.684.684,0,1,1,.967-.967h0l3.663,3.662h0a2.594,2.594,0,0,0,3.742-3.591l-.02-.022c-.018-.019-.034-.04-.053-.058h0l-5.1-5.1a1.067,1.067,0,0,0-.609-.3l-12.72-1.761c-.24-.035-.693-.2-.693-.549a.536.536,0,0,1,.537-.536H149.7l11.322,11.324a1.068,1.068,0,0,0,.755.313h4.057a1.068,1.068,0,1,0,0-2.136h-3.615L150.9,100.69a1.068,1.068,0,0,0-.755-.313H135.471a2.671,2.671,0,0,0-2.672,2.673,2.762,2.762,0,0,0,2.526,2.662l12.374,1.714,4.849,4.848h0a.46.46,0,0,1-.324.786.455.455,0,0,1-.323-.134h0l-3.666-3.666h0l-.031-.028c-.016-.015-.033-.031-.05-.045a2.818,2.818,0,0,0-3.905,4.062l10.064,10.064a1.068,1.068,0,0,0,.755.313h10.766a1.068,1.068,0,0,0,0-2.136Z" transform="translate(-113.891 0)" fill="#008f70"/>
      </g>
      <g id="Ellipse_11" data-name="Ellipse 11" transform="translate(428 1197)" fill="none" stroke="#008f70" stroke-width="1">
        <circle cx="38" cy="38" r="38" stroke="none"/>
        <circle cx="38" cy="38" r="37.5" fill="none"/>
      </g>
    </g>
  </g>
</svg>
