<svg xmlns="http://www.w3.org/2000/svg" width="22.892" height="15.035" viewBox="0 0 22.892 15.035">
  <g id="Groupe_94" data-name="Groupe 94" transform="translate(-980.5 -814)">
    <g id="_9oKKGl" data-name="9oKKGl" transform="translate(1003.392 829.035) rotate(180)">
      <g id="Groupe_15" data-name="Groupe 15" transform="translate(0 0)">
        <path id="Tracé_53" data-name="Tracé 53" d="M8.308,0c.6.354.632.755.107,1.234Q5.037,4.317,1.663,7.4a1.441,1.441,0,0,1-.141.1c.46.424.889.821,1.321,1.215q2.8,2.555,5.6,5.108c.5.456.456.866-.132,1.212H7.974c-.641-.565-1.288-1.122-1.92-1.7Q3.213,10.754.383,8.158c-.51-.467-.51-.815,0-1.282q3.609-3.3,7.223-6.6c.113-.1.245-.185.368-.277Z" fill="#008f70"/>
      </g>
    </g>
    <line id="Ligne_7" data-name="Ligne 7" x1="21.332" transform="translate(980.5 821.5)" fill="none" stroke="#008f70" stroke-width="1"/>
  </g>
</svg>
