<svg id="calculator" xmlns="http://www.w3.org/2000/svg" width="37.351" height="37.351" viewBox="0 0 37.351 37.351">
  <path id="Tracé_54" data-name="Tracé 54" d="M31.929,0H5.422A5.428,5.428,0,0,0,0,5.422V31.929a5.428,5.428,0,0,0,5.422,5.422H31.929a5.428,5.428,0,0,0,5.422-5.422V5.422A5.428,5.428,0,0,0,31.929,0Zm4.217,31.929a4.222,4.222,0,0,1-4.217,4.217H5.422A4.222,4.222,0,0,1,1.2,31.929V5.422A4.222,4.222,0,0,1,5.422,1.2H31.929a4.222,4.222,0,0,1,4.217,4.217Z" fill="#fff"/>
  <path id="Tracé_55" data-name="Tracé 55" d="M63.929,47.664H48.868V32.6a.6.6,0,1,0-1.2,0V47.664H32.6a.6.6,0,1,0,0,1.2H47.664V63.929a.6.6,0,1,0,1.2,0V48.868H63.929a.6.6,0,0,0,0-1.2Z" transform="translate(-29.59 -29.59)" fill="#fff"/>
  <path id="Tracé_56" data-name="Tracé 56" d="M56.6,62.024H60.82v4.217a.6.6,0,1,0,1.2,0V62.024h4.217a.6.6,0,1,0,0-1.2H62.024V56.6a.6.6,0,0,0-1.2,0V60.82H56.6a.6.6,0,0,0,0,1.2Z" transform="translate(-51.783 -51.783)" fill="#fff"/>
  <path id="Tracé_57" data-name="Tracé 57" d="M296.6,121.2h9.639a.6.6,0,1,0,0-1.2H296.6a.6.6,0,1,0,0,1.2Z" transform="translate(-273.71 -110.963)" fill="#fff"/>
  <path id="Tracé_58" data-name="Tracé 58" d="M306.242,360H296.6a.6.6,0,1,0,0,1.2h9.639a.6.6,0,1,0,0-1.2Z" transform="translate(-273.71 -332.89)" fill="#fff"/>
  <path id="Tracé_59" data-name="Tracé 59" d="M80.258,312.176a.6.6,0,0,0-.852,0l-3.189,3.189-3.189-3.189a.6.6,0,1,0-.852.852l3.189,3.189-3.189,3.189a.6.6,0,1,0,.852.852l3.189-3.189,3.189,3.189a.6.6,0,0,0,.852-.852l-3.189-3.189,3.189-3.189A.6.6,0,0,0,80.258,312.176Z" transform="translate(-66.578 -288.505)" fill="#fff"/>
  <path id="Tracé_60" data-name="Tracé 60" d="M347.615,297.807a1.807,1.807,0,1,0-1.807,1.807A1.809,1.809,0,0,0,347.615,297.807Zm-2.41,0a.6.6,0,1,1,.6.6A.6.6,0,0,1,345.2,297.807Z" transform="translate(-318.095 -273.71)" fill="#fff"/>
  <path id="Tracé_61" data-name="Tracé 61" d="M345.807,392a1.807,1.807,0,1,0,1.807,1.807A1.809,1.809,0,0,0,345.807,392Zm0,2.41a.6.6,0,1,1,.6-.6A.6.6,0,0,1,345.807,394.41Z" transform="translate(-318.095 -362.48)" fill="#fff"/>
</svg>
