<svg xmlns="http://www.w3.org/2000/svg" width="76" height="76" viewBox="0 0 76 76">
  <g id="conseil" transform="translate(-988 -1197)">
    <g id="Groupe_147" data-name="Groupe 147" transform="translate(-13)">
      <g id="eg5G3b.tif" transform="translate(1730.24 1057.163)">
        <g id="Groupe_146" data-name="Groupe 146" transform="translate(-710.24 158.837)">
          <path id="Tracé_114" data-name="Tracé 114" d="M-690.021,249.017h15.6c1.023,0,1.276.248,1.276,1.251q0,9.754,0,19.508c0,.885-.286,1.179-1.161,1.179q-15.69,0-31.381,0c-.868,0-1.16-.3-1.16-1.185,0-1.847-.008-3.694.007-5.541a1.064,1.064,0,0,0-.343-.855c-.893-.862-1.764-1.748-2.639-2.629a.9.9,0,0,1,0-1.516c.9-.9,1.809-1.791,2.689-2.71a1.092,1.092,0,0,0,.277-.68c.022-1.909.011-3.818.013-5.727,0-.8.3-1.1,1.091-1.1Zm-18.11,10.971c.842.84,1.637,1.665,2.468,2.451a1.6,1.6,0,0,1,.534,1.272c-.019,1.66-.007,3.321-.007,4.982v.495h30.256v-18.4h-30.256v.544c0,1.583-.022,3.166.011,4.749a1.883,1.883,0,0,1-.636,1.559C-706.57,258.38-707.323,259.181-708.131,259.988Z" transform="translate(710.24 -240.599)" fill="#008f70"/>
          <path id="Tracé_115" data-name="Tracé 115" d="M-691.512,175.607a4.238,4.238,0,0,1,.7.424c.541.509,1.065,1.038,1.581,1.573a.854.854,0,0,1,.053,1.279.855.855,0,0,1-1.278-.054c-.556-.539-1.1-1.09-1.641-1.645a.756.756,0,0,1-.144-.977A3.261,3.261,0,0,1-691.512,175.607Z" transform="translate(694.027 -174.042)" fill="#008f70"/>
          <path id="Tracé_116" data-name="Tracé 116" d="M-328.2,521.981c-.164.206-.3.53-.538.635a.977.977,0,0,1-.852-.04,23.653,23.653,0,0,1-1.948-1.925.755.755,0,0,1,.082-1.055.792.792,0,0,1,1.092-.12c.675.614,1.31,1.274,1.943,1.932C-328.318,521.518-328.3,521.714-328.2,521.981Z" transform="translate(367.055 -485.657)" fill="#008f70"/>
          <path id="Tracé_117" data-name="Tracé 117" d="M-688.508,520.265a3.527,3.527,0,0,1-.381.678c-.531.563-1.079,1.11-1.638,1.645a.855.855,0,0,1-1.277.018.855.855,0,0,1,.061-1.244c.526-.546,1.064-1.081,1.607-1.61a.808.808,0,0,1,1.017-.186A3.109,3.109,0,0,1-688.508,520.265Z" transform="translate(693.743 -485.792)" fill="#008f70"/>
          <path id="Tracé_118" data-name="Tracé 118" d="M-328.684,176.026c.221.183.552.329.638.564a1.055,1.055,0,0,1-.087.89,21.55,21.55,0,0,1-1.826,1.844.8.8,0,0,1-1.133-.058.821.821,0,0,1-.039-1.171c.57-.609,1.165-1.2,1.773-1.769A2.574,2.574,0,0,1-328.684,176.026Z" transform="translate(366.725 -174.421)" fill="#008f70"/>
          <path id="Tracé_119" data-name="Tracé 119" d="M-509.763,160.952c0,.434.01.868,0,1.3a.83.83,0,0,1-.861.84.822.822,0,0,1-.811-.843q-.018-1.278,0-2.556a.82.82,0,0,1,.841-.857.817.817,0,0,1,.834.86c0,.031,0,.062,0,.093q0,.581,0,1.162Z" transform="translate(530.004 -158.837)" fill="#008f70"/>
          <path id="Tracé_120" data-name="Tracé 120" d="M-509.771,530.529c0,.434.012.868,0,1.3a.8.8,0,0,1-.832.81.794.794,0,0,1-.836-.8c-.015-.883-.016-1.767,0-2.65a.845.845,0,0,1,.856-.807.855.855,0,0,1,.814.8c0,.031,0,.062,0,.093q0,.628,0,1.255Z" transform="translate(530.01 -493.883)" fill="#008f70"/>
          <path id="Tracé_121" data-name="Tracé 121" d="M-584.818,313.975q-4.186,0-8.372,0a.884.884,0,0,1-.9-.521.707.707,0,0,1,.16-.891,1.316,1.316,0,0,1,.745-.282c1.007-.031,2.015-.013,3.023-.013h13.348a5.022,5.022,0,0,1,.557.018.854.854,0,0,1,.778.836.868.868,0,0,1-.782.842c-.215.022-.434.008-.651.008Z" transform="translate(605.013 -297.942)" fill="#008f70"/>
          <path id="Tracé_122" data-name="Tracé 122" d="M-584.736,402.472q4.163,0,8.325,0c.758,0,1.227.56.928,1.151a1.465,1.465,0,0,1-.645.517,1.287,1.287,0,0,1-.55.035h-16.185c-.812,0-1.233-.3-1.219-.871s.414-.834,1.208-.834Z" transform="translate(604.926 -379.729)" fill="#008f70"/>
          <path id="Tracé_123" data-name="Tracé 123" d="M-585.769,359.141c-2.248,0-4.5,0-6.745,0a.76.76,0,0,1-.819-.478,1.292,1.292,0,0,1,.05-.826c.149-.348.509-.391.873-.39q4.628.011,9.257,0c1.4,0,2.791,0,4.186.007a.806.806,0,0,1,.827.726.836.836,0,0,1-.564.91,2.069,2.069,0,0,1-.553.042Q-582.513,359.143-585.769,359.141Z" transform="translate(604.288 -338.91)" fill="#008f70"/>
        </g>
      </g>
      <g id="Ellipse_13" data-name="Ellipse 13" transform="translate(1001 1197)" fill="none" stroke="#008f70" stroke-width="1">
        <circle cx="38" cy="38" r="38" stroke="none"/>
        <circle cx="38" cy="38" r="37.5" fill="none"/>
      </g>
    </g>
  </g>
</svg>
