<svg xmlns="http://www.w3.org/2000/svg" width="105.729" height="105.729" viewBox="0 0 105.729 105.729">
  <g id="done" transform="translate(-2861.424 -2126.554)">
    <path id="Tracé_48" data-name="Tracé 48" d="M3055.049,2152.54l-10.132-10.133a3.818,3.818,0,0,0-5.4,0l-42.779,42.78-9.89-9.891a3.818,3.818,0,0,0-5.4,0l-10.132,10.133a3.817,3.817,0,0,0,0,5.4l12.454,12.454c.043.047.087.094.132.139l10.133,10.133a3.818,3.818,0,0,0,5.4,0l55.615-55.615a3.817,3.817,0,0,0,0-5.4Z" transform="translate(-90.825 -12.303)" fill="#05b17c"/>
    <path id="Tracé_49" data-name="Tracé 49" d="M2960.938,2154.531l-7.6,7.6a42.627,42.627,0,1,1-20.912-21.373l7.55-7.55A52.806,52.806,0,1,0,2963,2158.84Q2962.062,2156.631,2960.938,2154.531Z" fill="#05b17c"/>
  </g>
</svg>
