<svg xmlns="http://www.w3.org/2000/svg" width="37.433" height="21.872" viewBox="0 0 37.433 21.872">
  <g id="down" transform="translate(0 21.872) rotate(-90)">
    <path id="Tracé_53" data-name="Tracé 53" d="M20.684,0c1.5.88,1.574,1.879.266,3.073Q12.542,10.749,4.14,18.432a3.586,3.586,0,0,1-.35.24C4.937,19.728,6,20.717,7.079,21.7q6.965,6.361,13.933,12.717c1.244,1.135,1.136,2.155-.328,3.018h-.832c-1.595-1.407-3.208-2.794-4.781-4.225Q8,26.775.953,20.312c-1.27-1.163-1.27-2.028,0-3.191Q9.939,8.9,18.937.69c.281-.256.609-.461.915-.69Z" transform="translate(0)" fill="#fff"/>
  </g>
</svg>
