<svg xmlns="http://www.w3.org/2000/svg" width="110" height="91" viewBox="0 0 110 91">
  <g id="economiques" transform="translate(-57 -2214)">
    <g id="Rectangle_76" data-name="Rectangle 76" transform="translate(57 2214)" fill="none" stroke="#008f70" stroke-width="1">
      <rect width="110" height="91" stroke="none"/>
      <rect x="0.5" y="0.5" width="109" height="90" fill="none"/>
    </g>
    <g id="station-essence" transform="translate(80.602 2232.49)">
      <g id="Groupe_105" data-name="Groupe 105" transform="translate(0 0)">
        <g id="Groupe_104" data-name="Groupe 104" transform="translate(0)">
          <path id="Tracé_97" data-name="Tracé 97" d="M56.162,56.565h-.815a2.4,2.4,0,0,0,0-.345V12.733a2.416,2.416,0,0,0-2.416-2.416H29.325a2.416,2.416,0,0,0-2.416,2.416V30.68a9.374,9.374,0,0,0-5.522,3.81,9.484,9.484,0,0,0-1.353,7.924c.994,3.81,1.118,8.863-.939,10.961a4.293,4.293,0,0,1-4.335.815,4.818,4.818,0,0,1-3.631-2.761c-2.2-5.067,3.286-14.647,3.3-14.689.331-.5,7.966-12.356.166-19.328C14.277,17.082,6.753,9.13.941,9.9a1.079,1.079,0,1,0,.276,2.14,7.455,7.455,0,0,1,4.017.9L3.688,14.8a2.416,2.416,0,0,0,.363,3.4l.051.04,5.191,4.142a2.388,2.388,0,0,0,1.5.525H11a2.4,2.4,0,0,0,1.615-.9l1.5-1.891c4.666,5.964-1.381,15.462-1.532,15.614-.248.428-6.047,10.575-3.451,16.566a6.9,6.9,0,0,0,5.149,3.921,9.331,9.331,0,0,0,2.126.262,5.619,5.619,0,0,0,4.142-1.643c2.761-2.885,2.54-8.766,1.463-12.936a7.275,7.275,0,0,1,4.859-9.043V56.22a2.4,2.4,0,0,0,0,.345h-.69a2.416,2.416,0,0,0-2.47,2.36c0,.019,0,.037,0,.056v3.631a2.416,2.416,0,0,0,2.415,2.417H56.162a2.416,2.416,0,0,0,2.416-2.416V58.981A2.416,2.416,0,0,0,56.162,56.565ZM12.537,18.835,11,20.727a.345.345,0,0,1-.235.124.331.331,0,0,1-.248-.069L5.331,16.64a.345.345,0,0,1,0-.483l1.532-1.905a.345.345,0,0,1,.235-.124.331.331,0,0,1,.248.069l5.191,4.142a.331.331,0,0,1,.124.235A.345.345,0,0,1,12.537,18.835Zm16.415-6.1a.345.345,0,0,1,.345-.345H52.959a.345.345,0,0,1,.345.345V56.22a.345.345,0,0,1-.345.345H29.325a.345.345,0,0,1-.372-.316c0-.009,0-.019,0-.029V12.733ZM56.563,62.612a.345.345,0,0,1-.345.345H26.191a.345.345,0,0,1-.345-.345V58.981a.345.345,0,0,1,.345-.345H56.162a.345.345,0,0,1,.4.345Z" transform="translate(0 -9.85)" fill="#008f70"/>
        </g>
      </g>
      <g id="Groupe_107" data-name="Groupe 107" transform="translate(31.561 5.824)">
        <g id="Groupe_106" data-name="Groupe 106">
          <path id="Tracé_98" data-name="Tracé 98" d="M199.61,43.6h-14.3a2.416,2.416,0,0,0-2.416,2.416V60.329a2.416,2.416,0,0,0,2.416,2.416h14.3a2.416,2.416,0,0,0,2.416-2.416V46.013A2.416,2.416,0,0,0,199.61,43.6Zm.345,16.746a.345.345,0,0,1-.345.331h-14.3a.345.345,0,0,1-.345-.345V46.013a.345.345,0,0,1,.345-.345h14.3a.345.345,0,0,1,.345.345Z" transform="translate(-182.892 -43.597)" fill="#008f70"/>
        </g>
      </g>
      <g id="Groupe_109" data-name="Groupe 109" transform="translate(34.585 28.879)">
        <g id="Groupe_108" data-name="Groupe 108">
          <path id="Tracé_99" data-name="Tracé 99" d="M212.492,177.2H201.447a1.035,1.035,0,0,0,0,2.071h11.044a1.035,1.035,0,1,0,0-2.071Z" transform="translate(-200.412 -177.198)" fill="#008f70"/>
        </g>
      </g>
    </g>
  </g>
</svg>
