<svg xmlns="http://www.w3.org/2000/svg" width="76" height="76" viewBox="0 0 76 76">
  <g id="entretien" transform="translate(-738 -1202)">
    <g id="Groupe_148" data-name="Groupe 148">
      <g id="Maintenance_tools" data-name="Maintenance tools" transform="translate(754 1217.616)">
        <path id="Tracé_112" data-name="Tracé 112" d="M42.862,18.2a1.971,1.971,0,0,0-.379-2.242,2.024,2.024,0,0,0-2.794,0l-.465.466-.659-.659,1.054-1.054a2.049,2.049,0,0,1,1.789-.536,5.976,5.976,0,0,0,5.075-1.671A5.91,5.91,0,0,0,47.751,6a.659.659,0,0,0-1.072-.209L43.47,9l-1.552-.31-.312-1.553L44.813,3.93A.659.659,0,0,0,44.6,2.856,5.927,5.927,0,0,0,36.428,9.2a2.057,2.057,0,0,1-.537,1.787l-1.054,1.054L30.45,7.653l-.886-1.768a.659.659,0,0,0-.269-.281L25.107,3.281a.659.659,0,0,0-.786.11l-.929.929a.659.659,0,0,0-.11.785l2.325,4.189a.659.659,0,0,0,.281.269l1.769.887,4.387,4.387L30.99,15.891a2.049,2.049,0,0,1-1.789.536A5.931,5.931,0,0,0,22.857,24.6a.659.659,0,0,0,1.072.209l3.207-3.206,1.552.31L29,23.468l-3.206,3.207A.659.659,0,0,0,26,27.747,5.927,5.927,0,0,0,34.178,21.4a2.057,2.057,0,0,1,.537-1.787l1.054-1.054.659.659-.464.467a1.97,1.97,0,0,0,2.244,3.175l3.89,3.89A3.293,3.293,0,0,0,46.753,22.1ZM28.512,9.441a.652.652,0,0,0-.17-.123L26.66,8.475,24.675,4.9l.224-.224,3.577,1.986.844,1.681a.64.64,0,0,0,.123.171L33.9,12.974l-.933.932Zm5.277,9.242a3.359,3.359,0,0,0-.908,2.915,4.613,4.613,0,0,1-5.374,5.23l2.678-2.677a.659.659,0,0,0,.18-.593L29.9,21.23a.659.659,0,0,0-.519-.519l-2.328-.466a.659.659,0,0,0-.593.18L23.779,23.1a4.614,4.614,0,0,1,5.228-5.374,3.4,3.4,0,0,0,2.916-.908l4.9-4.9a3.359,3.359,0,0,0,.908-2.915A4.613,4.613,0,0,1,43.1,3.778L40.427,6.455a.659.659,0,0,0-.18.593l.466,2.328a.659.659,0,0,0,.516.516l2.328.466a.659.659,0,0,0,.593-.18L46.829,7.5A4.614,4.614,0,0,1,41.6,12.877a3.4,3.4,0,0,0-2.916.911ZM37.637,16.7l.659.659-.936.932-.659-.659Zm-.74,4.85a.659.659,0,0,1,0-.931l3.726-3.726a.659.659,0,1,1,.931.932L37.828,21.55a.674.674,0,0,1-.934,0Zm8.928,4.272a1.979,1.979,0,0,1-2.794,0l-3.806-3.806,2.794-2.794,3.806,3.805a1.976,1.976,0,0,1,0,2.794Z" transform="translate(-6.961)" fill="#008f70"/>
        <path id="Tracé_113" data-name="Tracé 113" d="M40.953,43.91a2.631,2.631,0,0,0-3.594-.967L30.937,46.65a2.611,2.611,0,0,0-1.488-1.073l-9.826-2.634a4.61,4.61,0,0,0-2.312-.02l-3.458.868V42.659A.659.659,0,0,0,13.2,42H7.927a.659.659,0,0,0-.659.659v.659H2.659A.659.659,0,0,0,2,43.976V53.2a.659.659,0,0,0,.659.659h4.61v.659a.659.659,0,0,0,.659.659H13.2a.659.659,0,0,0,.659-.659V53.6l.847.423a4.628,4.628,0,0,0,2.061.487h9.863a4.617,4.617,0,0,0,2.305-.618L40,47.507a2.642,2.642,0,0,0,.958-3.6ZM3.317,52.537v-7.9H7.269v7.9Zm9.22,1.317H8.586V43.317h3.951Zm26.8-7.485L28.27,52.757a3.293,3.293,0,0,1-1.646.441H16.763a3.311,3.311,0,0,1-1.472-.348l-1.436-.72V45.149l3.776-.944a3.309,3.309,0,0,1,1.652.014l9.826,2.634a1.317,1.317,0,1,1-.682,2.544l-7.855-2.106a.659.659,0,1,0-.34,1.272l7.853,2.107a2.662,2.662,0,0,0,.686.091,2.6,2.6,0,0,0,2.611-2.843l6.633-3.83a1.34,1.34,0,0,1,1.8.482,1.322,1.322,0,0,1-.476,1.8Z" transform="translate(0 -13.526)" fill="#008f70"/>
      </g>
      <g id="Ellipse_12" data-name="Ellipse 12" transform="translate(738 1202)" fill="none" stroke="#008f70" stroke-width="1">
        <circle cx="38" cy="38" r="38" stroke="none"/>
        <circle cx="38" cy="38" r="37.5" fill="none"/>
      </g>
    </g>
  </g>
</svg>
