<svg xmlns="http://www.w3.org/2000/svg" width="27.463" height="19.404" viewBox="0 0 27.463 19.404">
  <g id="eye" transform="translate(328.511 -462.321)">
    <g id="Groupe_29" data-name="Groupe 29" transform="translate(-328.511 462.321)">
      <path id="Tracé_46" data-name="Tracé 46" d="M-312.983,481.725h-3.6c-.072-.055-.138-.146-.217-.159-5.1-.876-8.551-4.011-11.271-8.156a2.4,2.4,0,0,1,.039-2.825,20.6,20.6,0,0,1,4.5-5.06,13.552,13.552,0,0,1,17.329-.142,21.133,21.133,0,0,1,5.157,5.944v1.513c-.142.193-.3.378-.425.579a17.773,17.773,0,0,1-9.17,7.659C-311.406,481.341-312.2,481.511-312.983,481.725Zm-1.858-3.111c.686-.081,1.382-.115,2.057-.25,3.579-.714,5.966-3.089,8.039-5.861a.943.943,0,0,0-.125-.878,32.658,32.658,0,0,0-3.1-3.29,9.933,9.933,0,0,0-9.239-2.3c-3.342.824-5.608,3.124-7.58,5.763a.987.987,0,0,0,.126.889,23.082,23.082,0,0,0,1.835,2.154A11.132,11.132,0,0,0-314.84,478.614Z" transform="translate(328.511 -462.321)" fill="#707070"/>
      <path id="Tracé_47" data-name="Tracé 47" d="M-274.016,490.617a5.49,5.49,0,0,1-5.382,5.557,5.509,5.509,0,0,1-5.417-5.533,5.443,5.443,0,0,1,5.441-5.484A5.414,5.414,0,0,1-274.016,490.617Zm-8.2.025a2.862,2.862,0,0,0,2.847,2.889,2.916,2.916,0,0,0,2.79-2.874,2.921,2.921,0,0,0-2.823-2.935A2.868,2.868,0,0,0-282.217,490.642Z" transform="translate(293.147 -480.802)" fill="#707070"/>
    </g>
  </g>
</svg>
