<svg xmlns="http://www.w3.org/2000/svg" width="110" height="91" viewBox="0 0 110 91">
  <g id="familials" transform="translate(-211 -2214)">
    <g id="Groupe_132" data-name="Groupe 132" transform="translate(25)">
      <g id="Rectangle_77" data-name="Rectangle 77" transform="translate(186 2214)" fill="none" stroke="#008f70" stroke-width="1">
        <rect width="110" height="91" stroke="none"/>
        <rect x="0.5" y="0.5" width="109" height="90" fill="none"/>
      </g>
      <g id="family" transform="translate(206.343 2232.49)">
        <g id="Groupe_103" data-name="Groupe 103" transform="translate(0 0)">
          <path id="Tracé_90" data-name="Tracé 90" d="M105.163,247a1.361,1.361,0,0,0-.946,2.34,4.684,4.684,0,0,0,6.456,0,1.361,1.361,0,1,0-1.892-1.957,1.939,1.939,0,0,1-2.673,0A1.356,1.356,0,0,0,105.163,247Z" transform="translate(-89.672 -227.293)" fill="#008f70"/>
          <path id="Tracé_91" data-name="Tracé 91" d="M69.653,129.307a1.361,1.361,0,0,0-.894-1.62c-3.224-1.065-7.068-3.467-7.068-8.859v-2.855c0-4.4-1.009-7.849-3-10.242a10.13,10.13,0,0,0-8.094-3.54,10.1,10.1,0,0,0-7.945,3.526c-2.059,2.411-3.147,5.958-3.147,10.256v2.855a8.315,8.315,0,0,1-3.488,7.062,8.706,8.706,0,0,0-9.858,5.471c-.363-.1-2.268-.615-2.83-.78v-.906a11.678,11.678,0,0,0,6.111-10.257v-5.406a11.669,11.669,0,1,0-23.338,0v5.406a11.677,11.677,0,0,0,6.111,10.256v.907c-.562.165-1.146.323-1.75.486C5.855,132.31.116,133.856,0,140.892v11.93a1.362,1.362,0,0,0,1.361,1.361H19.767v1.935s0,.007,0,.01a1.361,1.361,0,0,0,1.361,1.361h7.065a1.361,1.361,0,1,0,0-2.722h-5.7v-.816a7.939,7.939,0,0,1,.385-2.491c.856-2.453,3.072-3.106,6.09-4l.429-.127a5.128,5.128,0,0,0,4.811,3.369,5.187,5.187,0,0,0,5.033-3.365l.418.123c3.852,1.137,6.4,1.887,6.475,6.487v.815H40.416a1.361,1.361,0,1,0,0,2.722h7.076a1.361,1.361,0,0,0,1.361-1.361s0-.007,0-.01v-1.935H67.012a1.361,1.361,0,0,0,1.361-1.361V140.914c0-.008,0-.015,0-.022a8.34,8.34,0,0,0-2.461-6.193C67.872,133.78,68.951,132.139,69.653,129.307ZM50.6,104.913a7.4,7.4,0,0,1,6,2.558c1.416,1.7,2.2,4.195,2.343,7.413-2.521.437-5.489.084-7.129-3.16a1.375,1.375,0,0,0-2.429,0c-1.64,3.243-4.606,3.6-7.126,3.161C42.572,108.618,45.639,104.913,50.6,104.913Zm-8.37,12.721a12.24,12.24,0,0,0,1.689.121A8.416,8.416,0,0,0,50.6,114.8a8.415,8.415,0,0,0,6.681,2.951,12.243,12.243,0,0,0,1.689-.121v1.194a8.37,8.37,0,1,1-16.739,0v-1.194Zm11.206,11.917v2.033a2.835,2.835,0,0,1-5.67,0v-2.032a11.073,11.073,0,0,0,5.67,0Zm-12.487-5.265a11.179,11.179,0,0,0,4.1,4.137v2.158c-.566.166-1.153.324-1.761.488l-.85.231a8.777,8.777,0,0,0-3.548-4.275A10.811,10.811,0,0,0,40.948,124.286Zm-12.185,7.893A5.986,5.986,0,0,1,40.189,133.3a13.633,13.633,0,0,0-11.759,0A5.964,5.964,0,0,1,28.763,132.179ZM8.826,114.012a8.947,8.947,0,1,1,17.893,0v1.408c-3.578.12-8.088-.306-11.413-2.582a1.361,1.361,0,0,0-1.852.3c-1.151,1.512-2.6,1.888-4.628,2.129v-1.254Zm0,5.406v-1.411c2.189-.245,4.251-.645,5.964-2.285,3.725,2.109,8.275,2.534,11.93,2.423v1.274a8.947,8.947,0,0,1-17.893,0Zm11.782,11.318v.836s0,.008,0,.012a2.835,2.835,0,0,1-5.67,0s0-.006,0-.009v-.84a11.659,11.659,0,0,0,5.671,0Zm8.476,13.852c-.3.091-.6.18-.89.265-3.359.991-7.105,2.095-8.147,6.607H10.007v-5.507a1.361,1.361,0,0,0-2.722,0v5.507H2.722V140.926c.082-4.642,3.248-5.829,8.45-7.231.438-.118.883-.239,1.326-.364a5.556,5.556,0,0,0,10.548,0c.443.125,2.166.593,2.564.706-.007.131-.01.263-.01.395v1.925a8.7,8.7,0,0,0,3.483,6.964Zm7.729.994s0,0,0,0a2.505,2.505,0,0,1-5.006,0s0,0,0,0V144.7a8.378,8.378,0,0,0,1.017.24,8.688,8.688,0,0,0,2.722.039,8.366,8.366,0,0,0,1.267-.278Zm.724-4.181a5.986,5.986,0,0,1-9.21-4.912,10.943,10.943,0,0,1,11.968,0A5.99,5.99,0,0,1,37.538,141.4ZM65.651,151.46H61.089v-5.507a1.361,1.361,0,0,0-2.722,0v5.507H48.572c-1.042-4.512-4.788-5.616-8.146-6.607-.294-.086-.592-.174-.89-.265v-1.263a8.705,8.705,0,0,0,3.487-6.968v-1.9c0-.165-.005-.328-.015-.49.329-.091.658-.18.982-.267.441-.119.89-.24,1.336-.366a5.556,5.556,0,0,0,10.548,0c.443.125.888.245,1.326.364,5.2,1.4,8.369,2.589,8.45,7.23V151.46ZM62.97,132.75a31.3,31.3,0,0,0-5.061-1.683c-.605-.163-1.189-.32-1.751-.485v-2.16a11.179,11.179,0,0,0,4.085-4.123,12.527,12.527,0,0,0,6.433,5.516C66.023,131.709,65.105,132.39,62.97,132.75Z" transform="translate(0 -102.191)" fill="#008f70"/>
          <path id="Tracé_93" data-name="Tracé 93" d="M243.378,488.441a1.361,1.361,0,0,0,0,2.722h.008a1.361,1.361,0,1,0-.008-2.722Z" transform="translate(-209.074 -435.865)" fill="#008f70"/>
        </g>
      </g>
    </g>
  </g>
</svg>
