<svg xmlns="http://www.w3.org/2000/svg" width="76" height="76" viewBox="0 0 76 76">
  <g id="garantie" transform="translate(-155 -1202)">
    <g id="Groupe_150" data-name="Groupe 150" transform="translate(5)">
      <g id="medal_1_" data-name="medal (1)" transform="translate(112.722 1210.5)">
        <g id="Groupe_145" data-name="Groupe 145" transform="translate(56.278 5.5)">
          <path id="Tracé_108" data-name="Tracé 108" d="M183.71,115.9a8.655,8.655,0,1,0-8.655,8.6,8.631,8.631,0,0,0,8.655-8.6Zm-8.655,6.722a6.625,6.625,0,1,1,6.664-6.625A6.641,6.641,0,0,1,175.055,122.619Z" transform="translate(-155.703 -97.411)" fill="#008f70"/>
          <path id="Tracé_109" data-name="Tracé 109" d="M94.921,47.512l-7.654-13.2,4.614-1-1.739-5.43,4.235-3.837-4.235-3.837,1.739-5.43-5.6-1.214L85.052,7.977,79.583,9.706,75.727,5.5,71.861,9.716,66.4,7.977l-1.224,5.566-5.6,1.214,1.739,5.43-4.235,3.837,4.235,3.837-1.739,5.43,4.478.971L56.435,47.415a.961.961,0,0,0,.991,1.486L62,48.008l1.5,4.352a.973.973,0,0,0,1.787.194L72.91,39.5l2.817,3.079,2.73-2.972,7.518,12.949a1.063,1.063,0,0,0,1.894-.1l1.5-4.352L93.94,49c.826.233,1.564-.544.981-1.486ZM64.585,49.688l-1.1-3.06a.944.944,0,0,0-.894-.69H62.4l-3.283.593,6.3-10.889L66.4,40.1l4.585-1.447Zm7.9-13.6-4.595,1.457-1.03-4.682-4.711-1.02,1.467-4.565-3.575-3.244L63.6,20.809l-1.467-4.565,4.711-1.02,1.03-4.682L72.473,12l3.244-3.546,3.264,3.536,4.595-1.457,1.03,4.682,4.711,1.02L87.85,20.8l3.565,3.225L87.85,27.249l1.467,4.565-4.711,1.02-1.03,4.682L78.981,36.06l-3.244,3.546Zm16.377,9.85a1.083,1.083,0,0,0-1.1.69l-1.1,3.06-6.44-11.122,4.828,1.525.923-4.177,6.168,10.607-3.283-.583Z" transform="translate(-56.278 -5.5)" fill="#008f70"/>
        </g>
      </g>
      <g id="Ellipse_10" data-name="Ellipse 10" transform="translate(150 1202)" fill="none" stroke="#008f70" stroke-width="1">
        <circle cx="38" cy="38" r="38" stroke="none"/>
        <circle cx="38" cy="38" r="37.5" fill="none"/>
      </g>
    </g>
  </g>
</svg>
