<svg xmlns="http://www.w3.org/2000/svg" width="25.831" height="25.837" viewBox="0 0 25.831 25.837">
  <g id="c7LlsX.tif" transform="translate(406.099 -497.845)">
    <g id="Groupe_13" data-name="Groupe 13" transform="translate(-406.099 497.845)">
      <path id="Tracé_49" data-name="Tracé 49" d="M-380.268,510.76a12.927,12.927,0,0,1-12.9,12.921A12.924,12.924,0,0,1-406.1,510.766a12.924,12.924,0,0,1,12.9-12.921A12.924,12.924,0,0,1-380.268,510.76Zm-17.1-2.753a13.936,13.936,0,0,0,.016,5.513h8.365a15.134,15.134,0,0,0,0-5.513Zm4.2-7.907c-1.339,1.044-3.61,4.756-3.7,6.029h7.385A14.577,14.577,0,0,0-393.166,500.1Zm-.019,21.346a14.962,14.962,0,0,0,3.725-6.059h-7.45A14.966,14.966,0,0,0-393.185,521.445Zm-6.078-7.927a17.726,17.726,0,0,1,0-5.51H-403.9a10.882,10.882,0,0,0,0,5.51Zm16.782,0a10.426,10.426,0,0,0-.01-5.5H-387.1a17.633,17.633,0,0,1,0,5.5Zm-13.092-13.562a11.114,11.114,0,0,0-4.574,2.214,10.935,10.935,0,0,0-3.084,3.97h4.387A17.033,17.033,0,0,1-395.574,499.956Zm4.805-.006c.054.088.07.122.093.151a16.6,16.6,0,0,1,3.091,5.862c.049.169.142.189.291.189,1.315,0,2.63,0,3.944,0,.061,0,.122-.007.229-.014A11.246,11.246,0,0,0-390.768,499.95Zm-8.074,15.445H-403.2c.942,2.7,5.089,6.054,7.588,6.122A16.858,16.858,0,0,1-398.842,515.4Zm15.726-.01h-4.408a17.547,17.547,0,0,1-3.192,6.146A11.1,11.1,0,0,0-383.116,515.385Z" transform="translate(406.099 -497.845)" fill="#008f70"/>
    </g>
  </g>
</svg>
