<svg id="left-green" xmlns="http://www.w3.org/2000/svg" width="28.088" height="48.072" viewBox="0 0 28.088 48.072">
  <path id="Tracé_53" data-name="Tracé 53" d="M26.562,0c1.92,1.13,2.022,2.414.342,3.947Q16.106,13.8,5.317,23.67a4.606,4.606,0,0,1-.45.309C6.34,25.334,7.71,26.6,9.09,27.865Q18.035,36.034,26.984,44.2c1.6,1.458,1.459,2.768-.421,3.875H25.494c-2.048-1.807-4.119-3.588-6.139-5.425Q10.272,34.384,1.223,26.085c-1.631-1.493-1.631-2.6,0-4.1q11.54-10.559,23.1-21.1C24.68.557,25.1.294,25.494,0Z" transform="translate(0)" fill="#008f70"/>
</svg>
