<svg xmlns="http://www.w3.org/2000/svg" width="23.923" height="24.907" viewBox="0 0 23.923 24.907">
  <g id="promotions" transform="translate(-10.111 -0.001)">
    <g id="Groupe_87" data-name="Groupe 87" transform="translate(10.111 0.001)">
      <g id="Groupe_86" data-name="Groupe 86" transform="translate(0 0)">
        <path id="Tracé_81" data-name="Tracé 81" d="M32.738,12.868a.758.758,0,0,1,0-.827l.91-1.4A2.384,2.384,0,0,0,32.5,7.116l-1.558-.6a.759.759,0,0,1-.486-.669l-.086-1.666a2.384,2.384,0,0,0-3-2.179l-1.611.433a.759.759,0,0,1-.786-.256L23.926.886a2.384,2.384,0,0,0-3.708,0l-1.049,1.3a.759.759,0,0,1-.786.256l-1.611-.433a2.384,2.384,0,0,0-3,2.179l-.086,1.666a.759.759,0,0,1-.486.669l-1.558.6A2.384,2.384,0,0,0,10.5,10.643l.91,1.4a.759.759,0,0,1,0,.827l-.909,1.4a2.384,2.384,0,0,0,1.146,3.526l1.558.6a.759.759,0,0,1,.486.669l.086,1.666a2.384,2.384,0,0,0,3,2.179l1.611-.433a.759.759,0,0,1,.787.256l1.049,1.3a2.384,2.384,0,0,0,3.708,0l1.049-1.3a.759.759,0,0,1,.786-.256l1.611.433a2.384,2.384,0,0,0,3-2.179l.086-1.666a.759.759,0,0,1,.486-.669l1.558-.6a2.384,2.384,0,0,0,1.146-3.527Zm-.818,3.406-1.558.6a2.386,2.386,0,0,0-1.528,2.1l-.086,1.666a.758.758,0,0,1-.954.693L26.184,20.9a2.385,2.385,0,0,0-2.473.8L22.662,23a.758.758,0,0,1-1.179,0l-1.048-1.3a2.384,2.384,0,0,0-2.473-.8l-1.611.433a.758.758,0,0,1-.954-.693l-.086-1.666a2.386,2.386,0,0,0-1.528-2.1l-1.558-.6a.758.758,0,0,1-.364-1.121l.91-1.4a2.386,2.386,0,0,0,0-2.6l-.91-1.4a.758.758,0,0,1,.364-1.121l1.558-.6a2.386,2.386,0,0,0,1.528-2.1L15.4,4.269a.758.758,0,0,1,.954-.693l1.611.433a2.386,2.386,0,0,0,2.473-.8l1.049-1.3a.758.758,0,0,1,1.179,0l1.049,1.3a2.385,2.385,0,0,0,2.473.8l1.611-.433a.758.758,0,0,1,.954.693l.086,1.666a2.386,2.386,0,0,0,1.528,2.1l1.558.6a.758.758,0,0,1,.364,1.121l-.91,1.4a2.386,2.386,0,0,0,0,2.6l.91,1.4A.758.758,0,0,1,31.92,16.274Z" transform="translate(-10.111 -0.001)" fill="#008f70"/>
      </g>
    </g>
    <g id="Groupe_89" data-name="Groupe 89" transform="translate(17.159 8.073)">
      <g id="Groupe_88" data-name="Groupe 88" transform="translate(0)">
        <path id="Tracé_82" data-name="Tracé 82" d="M163.968,166.189a.813.813,0,0,0-1.15,0l-7.587,7.587a.813.813,0,1,0,1.15,1.15l7.587-7.587A.813.813,0,0,0,163.968,166.189Z" transform="translate(-154.993 -165.951)" fill="#008f70"/>
      </g>
    </g>
    <g id="Groupe_91" data-name="Groupe 91" transform="translate(17.159 8.073)">
      <g id="Groupe_90" data-name="Groupe 90">
        <path id="Tracé_83" data-name="Tracé 83" d="M156.619,165.95a1.626,1.626,0,1,0,1.626,1.626A1.628,1.628,0,0,0,156.619,165.95Z" transform="translate(-154.993 -165.95)" fill="#008f70"/>
      </g>
    </g>
    <g id="Groupe_93" data-name="Groupe 93" transform="translate(23.12 14.035)">
      <g id="Groupe_92" data-name="Groupe 92">
        <path id="Tracé_84" data-name="Tracé 84" d="M279.164,288.495a1.626,1.626,0,1,0,1.626,1.626A1.628,1.628,0,0,0,279.164,288.495Z" transform="translate(-277.538 -288.495)" fill="#008f70"/>
      </g>
    </g>
  </g>
</svg>
