<svg xmlns="http://www.w3.org/2000/svg" width="55.462" height="55.465" viewBox="0 0 55.462 55.465">
  <g id="loupe" transform="translate(-0.013)">
    <path id="Tracé_63" data-name="Tracé 63" d="M72.823,52.274a14.557,14.557,0,1,0,4.263,10.293A14.573,14.573,0,0,0,72.823,52.274ZM71.448,71.485a12.613,12.613,0,1,1,3.694-8.918A12.627,12.627,0,0,1,71.448,71.485Z" transform="translate(-42.133 -42.183)" fill="#fff"/>
    <path id="Tracé_64" data-name="Tracé 64" d="M160.754,73.026a.972.972,0,1,0,0,1.944,9.578,9.578,0,0,1,9.567,9.567.972.972,0,0,0,1.944,0A11.524,11.524,0,0,0,160.754,73.026Z" transform="translate(-140.357 -64.153)" fill="#fff"/>
    <path id="Tracé_65" data-name="Tracé 65" d="M53.555,44.254,38.692,29.391A20.389,20.389,0,0,0,5.983,5.97,20.391,20.391,0,0,0,29.4,38.679L44.266,53.542a6.568,6.568,0,1,0,9.288-9.288ZM8.561,32.22A16.739,16.739,0,1,1,32.233,8.548,16.739,16.739,0,0,1,8.561,32.22ZM50.977,50.964a2.923,2.923,0,0,1-4.134,0L32.6,36.717a20.674,20.674,0,0,0,4.133-4.133L50.977,46.831A2.926,2.926,0,0,1,50.977,50.964Z" transform="translate(0 0)" fill="#fff"/>
  </g>
</svg>
