<svg xmlns="http://www.w3.org/2000/svg" width="110" height="91" viewBox="0 0 110 91">
  <g id="sportives" transform="translate(-321 -2215)">
    <g id="Rectangle_78" data-name="Rectangle 78" transform="translate(321 2215)" fill="none" stroke="#008f70" stroke-width="1">
      <rect width="110" height="91" stroke="none"/>
      <rect x="0.5" y="0.5" width="109" height="90" fill="none"/>
    </g>
    <g id="voiture-de-sport" transform="translate(336 2084.631)">
      <path id="Tracé_94" data-name="Tracé 94" d="M89.246,288.581a1.109,1.109,0,0,0,0,2.217h.012a1.109,1.109,0,0,0-.012-2.217Z" transform="translate(-75.11 -102.47)" fill="#008f70"/>
      <path id="Tracé_95" data-name="Tracé 95" d="M425.923,288.581a1.109,1.109,0,0,0,0,2.217h.012a1.109,1.109,0,0,0-.012-2.217Z" transform="translate(-362.026 -102.47)" fill="#008f70"/>
      <path id="Tracé_96" data-name="Tracé 96" d="M63.9,175.448H53.7l-4.7-4.7a8.164,8.164,0,0,0-5.811-2.407H33.116a34.352,34.352,0,0,0-7.3.786L6.645,173.3l-1.373-2.747H8.217a1.109,1.109,0,0,0,0-2.217H1.109a1.109,1.109,0,0,0,0,2.217H2.793L4.41,173.79l-1.365.3a2.283,2.283,0,0,0-1.8,2.215l-.046,4.166A2.3,2.3,0,0,0,0,182.48v2.952a3.493,3.493,0,0,0,2.523,3.344l5.293,1.512A7.026,7.026,0,0,0,19.4,191.882H58.645a7.019,7.019,0,0,0,10.516,0h4.22a2.3,2.3,0,0,0,2.293-2.293v-2.37A11.785,11.785,0,0,0,63.9,175.448Zm-30.729-4.892v4.892H31.914a1.262,1.262,0,0,1-1.261-1.261v-3.534q1.23-.095,2.464-.1h.058ZM3.132,186.645a1.266,1.266,0,0,1-.915-1.213V182.48a.076.076,0,0,1,.076-.076H5.848a1.109,1.109,0,0,0,0-2.217H3.414l.043-3.86a.076.076,0,0,1,.06-.074l22.772-4.962c.71-.155,1.426-.282,2.146-.389v3.284a3.482,3.482,0,0,0,3.478,3.478h4.74a1.109,1.109,0,0,0,0-2.217H35.391v-4.892h7.795a5.962,5.962,0,0,1,4.243,1.757l3.134,3.134H41.392a1.109,1.109,0,0,0,0,2.217H55.3l-6.2,6.2a3.606,3.606,0,0,1-2.567,1.063H32.488a5.962,5.962,0,0,1-4.243-1.757l-.575-.575a8.163,8.163,0,0,0-5.811-2.407H14.141a7.041,7.041,0,0,0-7.033,7.033c0,.192.01.381.025.569Zm11.01,5.39a4.815,4.815,0,1,1,4.816-4.815,4.821,4.821,0,0,1-4.816,4.815Zm49.762,0a4.815,4.815,0,1,1,4.816-4.815A4.821,4.821,0,0,1,63.9,192.035Zm9.555-2.446a.076.076,0,0,1-.076.076H70.5a7.033,7.033,0,1,0-13.186,0H20.734A7.018,7.018,0,0,0,19.26,182.4h2.6a5.961,5.961,0,0,1,4.243,1.758l.575.575a8.164,8.164,0,0,0,5.811,2.407H46.538a5.81,5.81,0,0,0,4.135-1.713l7.766-7.766H63.9a9.565,9.565,0,0,1,9.555,9.555v2.37Z" fill="#008f70"/>
    </g>
  </g>
</svg>
