<svg xmlns="http://www.w3.org/2000/svg" width="27" height="14.82" viewBox="0 0 27 14.82">
  <g id="arrow-down" transform="translate(311 -820.477) rotate(90)">
    <g id="Groupe_2" data-name="Groupe 2" transform="translate(820.477 284)">
      <path id="Tracé_1" data-name="Tracé 1" d="M821.582,311a3.806,3.806,0,0,1-.757-.487,1.29,1.29,0,0,1-.045-1.712,3.676,3.676,0,0,1,.284-.31q5.359-5.379,10.72-10.754a1.645,1.645,0,0,1,.26-.177l0-.118a1.743,1.743,0,0,1-.258-.18q-5.4-5.412-10.8-10.828a1.384,1.384,0,0,1-.3-1.789,1.624,1.624,0,0,1,.893-.645h.525a2.684,2.684,0,0,1,1.049.752q5.684,5.711,11.376,11.412a2.693,2.693,0,0,1,.764,1.072v.527a2.722,2.722,0,0,1-.763,1.074q-5.693,5.7-11.376,11.412a2.694,2.694,0,0,1-1.05.751Z" transform="translate(-820.477 -284)" fill="#fff"/>
    </g>
  </g>
</svg>
