<svg id="Groupe_60" data-name="Groupe 60" xmlns="http://www.w3.org/2000/svg" width="12.529" height="8.229" viewBox="0 0 12.529 8.229">
  <g id="_9oKKGl" data-name="9oKKGl" transform="translate(12.529 8.229) rotate(180)">
    <g id="Groupe_15" data-name="Groupe 15" transform="translate(0 0)">
      <path id="Tracé_53" data-name="Tracé 53" d="M4.547,0c.329.194.346.413.059.676L.91,4.052A.789.789,0,0,1,.833,4.1c.252.232.487.449.723.665l3.063,2.8c.274.25.25.474-.072.663H4.364c-.351-.309-.705-.614-1.051-.929Q1.758,5.886.209,4.465c-.279-.256-.279-.446,0-.7Q2.185,1.956,4.163.152C4.225.1,4.3.05,4.364,0Z" fill="#008f70"/>
    </g>
  </g>
  <line id="Ligne_7" data-name="Ligne 7" x1="11.675" transform="translate(0 4.105)" fill="none" stroke="#008f70" stroke-width="1"/>
</svg>
