<svg xmlns="http://www.w3.org/2000/svg" width="113" height="113" viewBox="0 0 113 113">
  <g id="Groupe_242" data-name="Groupe 242" transform="translate(-103)">
    <g id="Ellipse_10" data-name="Ellipse 10" transform="translate(103)" fill="none" stroke="#008f70" stroke-width="1">
      <circle cx="56.5" cy="56.5" r="56.5" stroke="none"/>
      <circle cx="56.5" cy="56.5" r="56" fill="none"/>
    </g>
    <g id="svgexport-10" transform="translate(123.201 28.431)">
      <rect id="Rectangle_246" data-name="Rectangle 246" width="74" height="56" transform="translate(-0.201 -0.431)" fill="none"/>
      <path id="Tracé_223" data-name="Tracé 223" d="M61.633,31.263a5.061,5.061,0,0,0-3.037-9.11H46.764a88.867,88.867,0,0,0,1.711-14.17c0-5.061-2.753-6.073-5.061-6.073-1.518,0-4.049.658-4.049,5.061,0,6.073-8.887,18.8-10.648,21.256H26.885a2.794,2.794,0,0,0-.587-1.093,2.834,2.834,0,0,0-2.115-.931H12.037A3.037,3.037,0,0,0,9,29.239v23.28a3.037,3.037,0,0,0,3.037,3.037h9.11a3.35,3.35,0,0,0,3.279-2.945l2.46-22.389h2.358a1.012,1.012,0,0,0,.81-.415c.466-.567,11.336-15.506,11.336-22.835,0-2.156.587-3.037,2.024-3.037s3.037.486,3.037,4.049c0,3.107-1.012,12.075-2.024,14.859a1.012,1.012,0,0,0,1.012,1.336H58.6a3.037,3.037,0,1,1,0,6.073H56.572a1.012,1.012,0,1,0,0,2.024H58.6a3.037,3.037,0,0,1,0,6.073H57.584a1.3,1.3,0,0,0-.344.071,4.99,4.99,0,0,0-.668-.071H55.56a1.012,1.012,0,0,0,0,2.024h1.012a3.037,3.037,0,1,1,0,6.073H55.56a1.569,1.569,0,0,0-.314.061,1.721,1.721,0,0,0-.314-.061h-.891a1.012,1.012,0,1,0,0,2.024A2.53,2.53,0,0,1,56.572,51h0a2.834,2.834,0,0,1-3.037,2.53H38.859c-3.735,0-7.3-.476-8.158-.9l-2.024-1.012a1.012,1.012,0,0,0-1.083,1.711.769.769,0,0,0,.182.091L29.8,54.431c1.458.729,5.749,1.124,9.11,1.124H53.536A4.828,4.828,0,0,0,58.6,51a4.545,4.545,0,0,0-.881-2.672,5.061,5.061,0,0,0,2.611-8.28,5.061,5.061,0,0,0,1.306-8.786ZM22.381,52.417a1.306,1.306,0,0,1-1.235,1.113h-9.11a1.012,1.012,0,0,1-1.012-1.012V29.239a1.012,1.012,0,0,1,1.012-1.012H24.183a.769.769,0,0,1,.8.719,1.012,1.012,0,0,1,0,.172Z" transform="translate(0.519 0.039)" fill="#008f70"/>
    </g>
  </g>
</svg>
