<svg xmlns="http://www.w3.org/2000/svg" width="112" height="113" viewBox="0 0 112 113">
  <g id="Groupe_240" data-name="Groupe 240" transform="translate(-178.936)">
    <g id="Ellipse_12" data-name="Ellipse 12" transform="translate(178.936)" fill="none" stroke="#008f70" stroke-width="1">
      <ellipse cx="56" cy="56.5" rx="56" ry="56.5" stroke="none"/>
      <ellipse cx="56" cy="56.5" rx="55.5" ry="56" fill="none"/>
    </g>
    <g id="svgexport-12" transform="translate(197.833 28.432)">
      <rect id="Rectangle_248" data-name="Rectangle 248" width="75" height="56" transform="translate(0.103 -0.431)" fill="none"/>
      <path id="Tracé_231" data-name="Tracé 231" d="M19.609,44.937a.958.958,0,0,0,.969-.969h0a.969.969,0,1,0-.969.969Z" transform="translate(1.005 0.892)" fill="#008f70"/>
      <path id="Tracé_232" data-name="Tracé 232" d="M62.267,50.442a3.62,3.62,0,0,0-3.324-2.213H45.106l-6.822-7.892v-.051a.683.683,0,0,1-.214-.51.724.724,0,0,1,.153-.449,2.652,2.652,0,0,1,.408.336l2.712,2.712,2.9,2.967a3.885,3.885,0,0,0,5.486,0,3.671,3.671,0,0,0,.438-.53.724.724,0,0,0,.1-.143,3.884,3.884,0,0,0,.3-.581.4.4,0,0,0,.051-.133,4.668,4.668,0,0,0,.153-.5v-.2a3.475,3.475,0,0,0,0-.561V42.05a3.844,3.844,0,0,0-1.091-2.192l-8.993-9.075a3.854,3.854,0,0,0-2.151-1.132h-15V29.3a1.672,1.672,0,0,0-1.57-1.764H5.441v4.731a1.02,1.02,0,0,0-.051.4.816.816,0,0,0,.051.214v5.231a1.02,1.02,0,0,0-.051.387.734.734,0,0,0,.051.214v5.231a1.02,1.02,0,0,0-.051.387.734.734,0,0,0,.051.214v4.986H21.98a1.672,1.672,0,0,0,1.55-1.784v-.581h1.856l15.407,7.749a3.661,3.661,0,0,0,1.927.622H58.943a3.61,3.61,0,0,0,3.61-3.61,5.822,5.822,0,0,0-.235-1.244ZM16.3,47.6H7.389V45.241h6.118a1.02,1.02,0,0,0-.133-1.937H7.389v-3.9h6.118a1.02,1.02,0,0,0-.133-1.937H7.389v-3.9h6.118a1.02,1.02,0,0,0,.9-1.02.958.958,0,0,0-1.02-.907h-6V29.477H16.3Zm5.282,0H18.248V29.477h3.334Zm37.371,5.965H42.72a1.682,1.682,0,0,1-.928-.285l-16-8.045H23.53V31.588H37.805a2.162,2.162,0,0,1,1.5.551l9.065,9.126a1.917,1.917,0,0,1,.54,1.1,1.133,1.133,0,0,1,0,.173v.143a1.357,1.357,0,0,1,0,.286.194.194,0,0,1,0,.071h0a1.582,1.582,0,0,1-.071.265v.082a2.489,2.489,0,0,1-.143.286v.061a1.418,1.418,0,0,1-.214.275h0a1.937,1.937,0,0,1-2.733,0l-6.21-6.118h-.061a1.784,1.784,0,0,0-2.4,0l-.1.1a2.651,2.651,0,0,0,0,3.722l7.382,8.545H58.953a1.652,1.652,0,0,1,1.509.958c.071.275.143.612.163.734A1.682,1.682,0,0,1,58.953,53.562Z" transform="translate(0.744 0.588)" fill="#008f70"/>
      <path id="Tracé_233" data-name="Tracé 233" d="M57.2,35.774c0-1.876-2.743-6.679-3.283-7.627l-.8-1.377-.775,1.387c-.53.958-3.192,5.812-3.181,7.668a4.079,4.079,0,0,0,3.905,4h.214A4.017,4.017,0,0,0,57.2,35.774Zm-4,2.243h0A2.223,2.223,0,0,1,51,35.814h0a21.28,21.28,0,0,1,2.182-5.282c1.02,1.978,2.243,4.466,2.243,5.3a2.213,2.213,0,0,1-2.213,2.182Z" transform="translate(1.605 0.573)" fill="#008f70"/>
      <path id="Tracé_234" data-name="Tracé 234" d="M50.724,9.709h0a1.2,1.2,0,0,0,1.2-1.2,1.213,1.213,0,1,0-2.417,0A1.224,1.224,0,0,0,50.724,9.709Z" transform="translate(1.612 0.188)" fill="#008f70"/>
      <path id="Tracé_235" data-name="Tracé 235" d="M51.024,13.11a1.213,1.213,0,1,0,1.2,1.213,1.213,1.213,0,0,0-1.2-1.213Z" transform="translate(1.618 0.305)" fill="#008f70"/>
      <path id="Tracé_236" data-name="Tracé 236" d="M63.119,1.14H42.9A4.079,4.079,0,0,0,38.82,5.219V18.331A4.079,4.079,0,0,0,42.9,22.41h2.223v1.733a1.642,1.642,0,0,0,1.631,1.642H59.264A1.631,1.631,0,0,0,60.9,24.154V22.41h2.223A4.079,4.079,0,0,0,67.2,18.331V5.188A4.079,4.079,0,0,0,63.119,1.14Zm-4.283,22.6H47.161V22.41H58.836Zm6.261-5.4a2.039,2.039,0,0,1-1.978,2.039H42.9a2.039,2.039,0,0,1-1.978-2.039V15.7H47.5a1.032,1.032,0,1,0-.122-2.06H40.921V9.664H47.5a1.032,1.032,0,1,0-.122-2.06H40.921V5.188A2.039,2.039,0,0,1,42.9,3.2h20.22A2.039,2.039,0,0,1,65.1,5.239Z" transform="translate(1.402 0.069)" fill="#008f70"/>
      <path id="Tracé_237" data-name="Tracé 237" d="M57.569,8.43a3.059,3.059,0,1,0,3.059,3.059A3.059,3.059,0,0,0,57.569,8.43Zm0,4.079a1.017,1.017,0,0,1-.724-1.733.958.958,0,0,1,.7-.3,1.02,1.02,0,1,1,0,2.039Z" transform="translate(1.71 0.213)" fill="#008f70"/>
    </g>
  </g>
</svg>
