<svg xmlns="http://www.w3.org/2000/svg" width="113" height="113" viewBox="0 0 113 113">
  <g id="Groupe_241" data-name="Groupe 241" transform="translate(-104.239)">
    <g id="Ellipse_13" data-name="Ellipse 13" transform="translate(104.239)" fill="none" stroke="#008f70" stroke-width="1">
      <circle cx="56.5" cy="56.5" r="56.5" stroke="none"/>
      <circle cx="56.5" cy="56.5" r="56" fill="none"/>
    </g>
    <g id="svgexport-15" transform="translate(124.386 28.431)">
      <rect id="Rectangle_250" data-name="Rectangle 250" width="74" height="55" transform="translate(-0.146 -0.431)" fill="none"/>
      <path id="Tracé_244" data-name="Tracé 244" d="M60.384,47.988c-.657-2.194-4.247-4.045-7.715-5.8-.92-.465-1.8-.91-2.568-1.345a1.019,1.019,0,1,0-1.011,1.77c.779.435,1.689.9,2.629,1.385,2.649,1.355,6.29,3.216,6.7,4.581.86,2.841.91,3.246.91,4.045a.758.758,0,0,1-.081.435,4.429,4.429,0,0,1-1.739.121H15.326a5.11,5.11,0,0,1-2.022-.212.617.617,0,0,1-.111-.384c.091-.374.384-1.709,1.011-4.045.455-1.77,4.955-4.328,13.327-7.584a6.937,6.937,0,0,0,3.034-2.022,1.011,1.011,0,0,0-1.618-1.213,5.056,5.056,0,0,1-2.134,1.3c-6.714,2.649-13.792,5.774-14.591,9.01-.728,2.791-1.011,4.156-1.011,4.217a1.507,1.507,0,0,0,0,.212,2.578,2.578,0,0,0,.718,1.921c.849.839,2.123.809,3.478.789H58.25a3.266,3.266,0,0,0,2.427-.728,2.5,2.5,0,0,0,.708-1.881C61.385,51.527,61.284,50.941,60.384,47.988Z" transform="translate(0.502 -0.305)" fill="#008f70"/>
      <path id="Tracé_245" data-name="Tracé 245" d="M20.056,31.335h3.034A1.921,1.921,0,0,0,24.5,30.8a3.135,3.135,0,0,0,.607-2.346V28.3a2.73,2.73,0,0,0,.506.273,20.112,20.112,0,0,0,1.82,3.367c.192.283.374.586.566.89a8.959,8.959,0,0,0,2.447,2.791A10.476,10.476,0,0,0,36.235,37.9q.263.013.526,0A8.777,8.777,0,0,0,42.3,35.572a9.364,9.364,0,0,0,2.245-2.68c.2-.334.4-.647.6-.951a20.143,20.143,0,0,0,1.85-3.387,2.407,2.407,0,0,0,.364-.253v.091a3.135,3.135,0,0,0,.607,2.346,1.82,1.82,0,0,0,.394.293c-.061,2.376-.657,6.987-2.882,7.786a3.034,3.034,0,0,0-1.729-.546,3.205,3.205,0,0,0-.7.081l-4.924,1.173a3.034,3.034,0,0,0,.708,5.986,3.205,3.205,0,0,0,.7-.081l4.924-1.173a3.034,3.034,0,0,0,2.245-3.65v-.1c3.094-1.588,3.61-6.886,3.691-9.171h2.022a4.985,4.985,0,0,0,4.045-2.487,11.123,11.123,0,0,0,0-9.2,4.985,4.985,0,0,0-4.045-2.467h0A16.432,16.432,0,0,0,36.235,1,16.432,16.432,0,0,0,20.056,17.179h0a4.985,4.985,0,0,0-4.045,2.487,11.123,11.123,0,0,0,0,9.2A4.985,4.985,0,0,0,20.056,31.335ZM43.98,42.307l-4.914,1.163A1.013,1.013,0,1,1,38.6,41.5l4.914-1.163a.92.92,0,0,1,.233,0,1,1,0,0,1,.233,1.972Zm2.558-16.027a.89.89,0,0,1-.506.435,1.011,1.011,0,0,0-.809.657,17.291,17.291,0,0,1-1.83,3.458c-.2.324-.415.647-.617,1.011a7.756,7.756,0,0,1-1.79,2.154c-2.609,2.164-4.459,1.911-4.52,1.9a.587.587,0,0,0-.192,0,8.565,8.565,0,0,1-4.6-1.85,7.26,7.26,0,0,1-1.941-2.235l-.576-.951a16.543,16.543,0,0,1-1.82-3.478,1.072,1.072,0,0,0-.92-.667.92.92,0,0,1-.506-.435,1.011,1.011,0,0,0-.789-.506V22.235h0a.88.88,0,0,0,1.011-.86,19.212,19.212,0,0,1,1.446-6.33c1.78-4.136,4.742-6.229,8.919-6.229,10.112,0,10.112,11.841,10.112,12.346s.789,1.011.789,1.011v3.66A1.011,1.011,0,0,0,46.539,26.279Zm8.089-5.834a9.1,9.1,0,0,1,0,7.473,2.943,2.943,0,0,1-2.214,1.4H49.38a7.4,7.4,0,0,1,0-.849V20.01a7.493,7.493,0,0,1,0-.809h3.034a2.963,2.963,0,0,1,2.225,1.264ZM36.235,3.022A14.409,14.409,0,0,1,50.391,17.179H49.38a2.022,2.022,0,0,0-1.183.344c-.839-4.308-3.438-10.83-11.629-10.83S25.557,13.458,24.6,17.816l-.091-.1a1.921,1.921,0,0,0-1.416-.536H22.078A14.409,14.409,0,0,1,36.235,3.022ZM17.821,20.485A2.963,2.963,0,0,1,20.056,19.2h3.034a7.493,7.493,0,0,1,0,.849v8.4a7.584,7.584,0,0,1,0,.86H20.056a2.963,2.963,0,0,1-2.225-1.3,9.1,9.1,0,0,1-.01-7.523Z" transform="translate(0.545 -0.71)" fill="#008f70"/>
    </g>
  </g>
</svg>
