<svg xmlns="http://www.w3.org/2000/svg" width="16.74" height="16.74" viewBox="0 0 16.74 16.74">
  <g id="Groupe_261" data-name="Groupe 261" transform="translate(-281 -1130)">
    <g id="sizZD3.tif" transform="translate(286 1134)">
      <g id="Groupe_257" data-name="Groupe 257" transform="translate(0 0)">
        <path id="Tracé_268" data-name="Tracé 268" d="M1011.446,428.125a1.625,1.625,0,0,1,.691.295l4.212,2.433.076.046-1.286,1.286-4.044-4.006.223-.054Z" transform="translate(-1010.342 -428.125)" fill="#008f70"/>
        <path id="Tracé_269" data-name="Tracé 269" d="M1013.824,432.83l-4.048,4.048a.47.47,0,0,1-.055-.036.989.989,0,0,1-.374-.774q0-3.291,0-6.583a.99.99,0,0,1,.37-.762Z" transform="translate(-1009.347 -428.466)" fill="#008f70"/>
        <path id="Tracé_270" data-name="Tracé 270" d="M1011.254,442.935,1015.23,439l1.248,1.247-.313.181-4.107,2.357A1.256,1.256,0,0,1,1011.254,442.935Z" transform="translate(-1010.433 -434.32)" fill="#008f70"/>
        <path id="Tracé_271" data-name="Tracé 271" d="M1021.112,436.444l1.37-1.37.419.25.369.222a1.03,1.03,0,0,1-.051,1.789c-.231.124-.457.259-.684.391a.081.081,0,0,1-.118-.01q-.642-.629-1.287-1.253A.1.1,0,0,1,1021.112,436.444Z" transform="translate(-1016.05 -432.084)" fill="#008f70"/>
      </g>
    </g>
    <g id="Groupe_258" data-name="Groupe 258" transform="translate(281 1130)">
      <path id="Tracé_272" data-name="Tracé 272" d="M1007.228,418.7a8.37,8.37,0,1,0,8.37,8.37A8.37,8.37,0,0,0,1007.228,418.7Zm0,15.713a7.343,7.343,0,1,1,7.343-7.343A7.343,7.343,0,0,1,1007.228,434.409Z" transform="translate(-998.858 -418.696)" fill="#008f70"/>
    </g>
  </g>
</svg>
