<svg xmlns="http://www.w3.org/2000/svg" width="16.74" height="16.741" viewBox="0 0 16.74 16.741">
  <g id="Groupe_260" data-name="Groupe 260" transform="translate(-282 -1156)">
    <g id="Groupe_256" data-name="Groupe 256" transform="translate(286 1160)">
      <path id="Tracé_265" data-name="Tracé 265" d="M1055.366,428.26c.1-.179.171-.313.251-.442a.607.607,0,1,1,1.041.618q-1.224,2.132-2.452,4.261c-.028.049-.052.1-.091.179.088.009.158.023.227.024.547,0,1.094-.008,1.64,0a.8.8,0,0,1,.726,1.014.34.34,0,0,1-.249.19q-2.647.017-5.295.006a.607.607,0,1,1,.016-1.212c.432-.006.864.01,1.295-.009a.434.434,0,0,0,.309-.172q.9-1.536,1.776-3.091a.38.38,0,0,0,0-.306c-.153-.309-.334-.6-.5-.907a.607.607,0,1,1,1.052-.6C1055.192,427.944,1055.263,428.079,1055.366,428.26Z" transform="translate(-1050.529 -427.482)" fill="#008f70"/>
      <path id="Tracé_266" data-name="Tracé 266" d="M1063.227,432.953c.531.92,1.07,1.836,1.588,2.764a.482.482,0,0,0,.514.295c.4-.024.8-.012,1.208-.006a.61.61,0,0,1,.649.618.616.616,0,0,1-.645.6c-.134,0-.268,0-.4,0h-.424c.068.126.118.222.172.316.134.232.28.458.4.7a.64.64,0,0,1-.246.851.6.6,0,0,1-.82-.235c-.057-.088-.106-.182-.158-.274q-1.035-1.808-2.072-3.616a1.636,1.636,0,0,1-.214-1.3,4.989,4.989,0,0,1,.337-.734Z" transform="translate(-1057.478 -430.585)" fill="#008f70"/>
      <path id="Tracé_267" data-name="Tracé 267" d="M1054.047,443.814c-.193.341-.371.69-.582,1.018a.6.6,0,0,1-.829.207.619.619,0,0,1-.211-.853,5.847,5.847,0,0,1,.37-.614.417.417,0,0,1,.249-.155A1.006,1.006,0,0,1,1054.047,443.814Z" transform="translate(-1051.56 -436.551)" fill="#008f70"/>
    </g>
    <g id="Groupe_259" data-name="Groupe 259" transform="translate(282 1156)">
      <path id="Tracé_273" data-name="Tracé 273" d="M1050.727,418a8.37,8.37,0,1,0,8.37,8.37A8.37,8.37,0,0,0,1050.727,418Zm0,15.713a7.342,7.342,0,1,1,7.342-7.342A7.343,7.343,0,0,1,1050.727,433.71Z" transform="translate(-1042.357 -417.997)" fill="#008f70"/>
    </g>
  </g>
</svg>
