<svg id="icon-bluthot" xmlns="http://www.w3.org/2000/svg" width="54.198" height="54.198" viewBox="0 0 54.198 54.198">
  <path id="Tracé_165" data-name="Tracé 165" d="M27.1,0A27.1,27.1,0,1,0,54.2,27.1,27.1,27.1,0,0,0,27.1,0Zm0,53.188A26.089,26.089,0,1,1,53.188,27.1,26.089,26.089,0,0,1,27.1,53.188Z"/>
  <path id="Tracé_166" data-name="Tracé 166" d="M45.669,38h-3.4A7.069,7.069,0,0,0,35.2,45.069V59.578a7.069,7.069,0,0,0,7.069,7.069h3.4a7.069,7.069,0,0,0,7.069-7.069V45.069A7.069,7.069,0,0,0,45.669,38Zm6.059,21.561a6.059,6.059,0,0,1-6.059,6.059h-3.4a6.059,6.059,0,0,1-6.059-6.059V45.069a6.059,6.059,0,0,1,6.059-6.059h3.4a6.059,6.059,0,0,1,6.059,6.059Z" transform="translate(-23.351 -25.208)"/>
  <path id="Tracé_167" data-name="Tracé 167" d="M54.3,64.1l-2.356-2.34.141-.148c.067-.071.128-.138.192-.2l1.252-1.256q1.215-1.212,2.43-2.434c.374-.37.377-.6,0-.959-1.441-1.444-2.855-2.858-4.3-4.289a.744.744,0,0,0-.384-.219.478.478,0,0,0-.394.084.747.747,0,0,0-.175.589v7.339l-.071-.027a.417.417,0,0,1-.242-.148l-.276-.3c-.38-.414-.778-.842-1.171-1.259a.636.636,0,0,0-.394-.219.475.475,0,0,0-.364.141c-.229.219-.219.478.037.768.047.05.094.1.145.155l.091.1,2.074,2.252-.108.128c-.04.054-.081.1-.121.145l-.65.7q-.7.764-1.4,1.528a.73.73,0,0,0-.226.508.448.448,0,0,0,.175.313c.155.128.4.256.784-.151l1.077-1.158.64-.693V70.6a.586.586,0,0,0,.337.626c.236.1.421,0,.619-.2,1.522-1.518,2.9-2.892,4.289-4.292.37-.37.367-.586,0-.963ZM51.776,54.1l3.08,3.087-3.08,3.117Zm0,15.317V63.133l3.141,3.144Z" transform="translate(-31.864 -34.657)"/>
  <path id="Tracé_168" data-name="Tracé 168" d="M115.565,59.238a.507.507,0,0,0-.673.757,8.914,8.914,0,0,1,0,13.391.506.506,0,0,0,.667.761,9.924,9.924,0,0,0,0-14.909Z" transform="translate(-76.102 -39.212)"/>
  <path id="Tracé_169" data-name="Tracé 169" d="M104.349,68a.5.5,0,0,0-.6.811,4.612,4.612,0,0,1,0,7.44.508.508,0,0,0-.1.707.5.5,0,0,0,.4.205.532.532,0,0,0,.3-.1,5.625,5.625,0,0,0,0-9.065Z" transform="translate(-68.69 -45.056)"/>
</svg>
