<svg id="icon-GPS" xmlns="http://www.w3.org/2000/svg" width="54.198" height="54.198" viewBox="0 0 54.198 54.198">
  <path id="Tracé_196" data-name="Tracé 196" d="M61.461,40.75H33.454a2.767,2.767,0,0,0-2.764,2.777V64.735A2.767,2.767,0,0,0,33.454,67.5H61.461a2.767,2.767,0,0,0,2.764-2.764V43.527a2.767,2.767,0,0,0-2.764-2.777Zm1.754,23.985a1.757,1.757,0,0,1-1.754,1.754H33.454A1.757,1.757,0,0,1,31.7,64.735V43.527a1.757,1.757,0,0,1,1.754-1.754H61.461a1.757,1.757,0,0,1,1.754,1.754Z" transform="translate(-20.359 -27.032)"/>
  <path id="Tracé_197" data-name="Tracé 197" d="M63.909,49.25H40.944a2.767,2.767,0,0,0-2.764,2.764V65.021a2.767,2.767,0,0,0,2.764,2.764H63.909a2.767,2.767,0,0,0,2.764-2.764V52.014a2.767,2.767,0,0,0-2.764-2.764Zm1.754,15.771a1.754,1.754,0,0,1-1.754,1.754H40.944a1.754,1.754,0,0,1-1.754-1.754V52.014a1.754,1.754,0,0,1,1.754-1.754H63.909a1.754,1.754,0,0,1,1.754,1.754Z" transform="translate(-25.327 -32.671)"/>
  <path id="Tracé_198" data-name="Tracé 198" d="M74.806,109.75H65.125a.5.5,0,0,0,0,1.01h9.682a.5.5,0,1,0,0-1.01Z" transform="translate(-42.867 -72.805)"/>
  <path id="Tracé_199" data-name="Tracé 199" d="M70.268,60.573a.522.522,0,0,0-.458-.273.5.5,0,0,0-.444.286l-4.773,9.941a.518.518,0,0,0,.081.566.5.5,0,0,0,.377.165.481.481,0,0,0,.168-.03l4.656-1.707,4.77,1.347a.5.5,0,0,0,.529-.168.508.508,0,0,0,.057-.555Zm-4.225,9.271,3.407-7.1.047,5.834Zm4.464-1.2-.044-5.494,3.323,6.423Z" transform="translate(-42.815 -40.001)"/>
  <path id="Tracé_200" data-name="Tracé 200" d="M27.1,0A27.1,27.1,0,1,0,54.2,27.1,27.1,27.1,0,0,0,27.1,0Zm0,53.188A26.089,26.089,0,1,1,53.188,27.1,26.089,26.089,0,0,1,27.1,53.188Z"/>
</svg>
