<svg xmlns="http://www.w3.org/2000/svg" width="54.198" height="54.198" viewBox="0 0 54.198 54.198">
  <g id="icon-camera-recul" transform="translate(0)">
    <path id="Tracé_130" data-name="Tracé 130" d="M61.337,40.8H33.06a2.773,2.773,0,0,0-2.76,2.76V64.768a2.773,2.773,0,0,0,2.76,2.76H61.337a2.773,2.773,0,0,0,2.76-2.76V43.56A2.751,2.751,0,0,0,61.337,40.8Zm1.75,23.968a1.739,1.739,0,0,1-1.75,1.75H33.06a1.739,1.739,0,0,1-1.75-1.75V43.56a1.739,1.739,0,0,1,1.75-1.75H61.337a1.739,1.739,0,0,1,1.75,1.75Z" transform="translate(-20.1 -27.065)"/>
    <path id="Tracé_131" data-name="Tracé 131" d="M63.821,49.3H40.66a2.773,2.773,0,0,0-2.76,2.76V65.054a2.773,2.773,0,0,0,2.76,2.76H63.854a2.773,2.773,0,0,0,2.76-2.76V52.06A2.759,2.759,0,0,0,63.821,49.3ZM65.6,65.054a1.738,1.738,0,0,1-1.75,1.75H40.66a1.739,1.739,0,0,1-1.75-1.75V52.06a1.739,1.739,0,0,1,1.75-1.75H63.854a1.738,1.738,0,0,1,1.75,1.75Z" transform="translate(-25.142 -32.704)"/>
    <path id="Tracé_132" data-name="Tracé 132" d="M74.767,109.8H65a.5.5,0,1,0,0,1.01h9.762a.5.5,0,0,0,0-1.01Z" transform="translate(-42.787 -72.838)"/>
    <path id="Tracé_133" data-name="Tracé 133" d="M66.784,61.939a.591.591,0,0,0-.135-.168.54.54,0,0,0-.471-.37H58.1a.475.475,0,0,0-.471.37.734.734,0,0,0-.135.168l-4.41,8.921a.537.537,0,0,0,.471.741.451.451,0,0,0,.438-.269l1.448-2.9h13.4l1.448,2.9a.525.525,0,0,0,.438.269.363.363,0,0,0,.236-.067.549.549,0,0,0,.236-.673Zm-8.416.5h7.507l.976,1.952H57.392Zm-2.457,4.982,1.01-2.02H67.356l1.01,2.02Z" transform="translate(-35.174 -40.731)"/>
    <path id="Tracé_134" data-name="Tracé 134" d="M60.451,88.3H59.1a.5.5,0,1,0,0,1.01h1.347a.5.5,0,1,0,0-1.01Z" transform="translate(-38.873 -58.575)"/>
    <path id="Tracé_135" data-name="Tracé 135" d="M95.125,88.3H93.1a.5.5,0,0,0,0,1.01h2.02a.5.5,0,0,0,0-1.01Z" transform="translate(-61.428 -58.575)"/>
    <path id="Tracé_136" data-name="Tracé 136" d="M83.125,88.3H81.1a.5.5,0,1,0,0,1.01h2.02a.5.5,0,0,0,0-1.01Z" transform="translate(-53.468 -58.575)"/>
    <path id="Tracé_137" data-name="Tracé 137" d="M71.125,88.3H69.1a.5.5,0,0,0,0,1.01h2.02a.5.5,0,0,0,0-1.01Z" transform="translate(-45.507 -58.575)"/>
    <path id="Tracé_138" data-name="Tracé 138" d="M27.1,0A27.1,27.1,0,1,0,54.2,27.1,27.124,27.124,0,0,0,27.1,0Zm0,53.188A26.089,26.089,0,1,1,53.188,27.1,26.133,26.133,0,0,1,27.1,53.188Z"/>
  </g>
</svg>
