<svg id="icon-radar-rdecul" xmlns="http://www.w3.org/2000/svg" width="54.198" height="54.198" viewBox="0 0 54.198 54.198">
  <path id="Tracé_139" data-name="Tracé 139" d="M69.752,55.184A19.157,19.157,0,0,0,64.959,53.6a.816.816,0,0,0-.05-.088,18.612,18.612,0,0,0-3.72-4.662,12.455,12.455,0,0,0-8.89-3.275c-9.015.293-10.934,6.7-11.344,9.443,0,.057-.858,5.894.027,8.389.444,1.249,2.491,1.656,2.723,1.683a.428.428,0,0,0,.094,0h.263a4.46,4.46,0,0,0,8.614,0h9.463a4.464,4.464,0,0,0,8.561.2,7.7,7.7,0,0,0,1.8-.219A.555.555,0,0,0,72.637,65a2.628,2.628,0,0,1,.3-.175c.673-.367,1.124-.751,1.347-2.713C74.661,59.257,73.088,56.85,69.752,55.184ZM48.37,67.383a3.44,3.44,0,1,1,3.44-3.44,3.44,3.44,0,0,1-3.44,3.44Zm18.077,0a3.44,3.44,0,1,1,3.44-3.44,3.44,3.44,0,0,1-3.44,3.44ZM73.274,62c-.192,1.586-.448,1.727-.831,1.936-.1.054-.209.114-.337.192a6.793,6.793,0,0,1-1.222.145c0-.114.017-.226.017-.337a4.467,4.467,0,0,0-8.934,0v.141H52.84v-.141a4.47,4.47,0,1,0-8.938,0v.141h-.061c-.566-.114-1.707-.495-1.9-1.01-.592-1.663-.3-5.723.02-7.894.461-3.09,2.417-8.311,10.358-8.567,3.282-.108,7.975,1.1,11.7,7.433.084.138.141.239.189.31a.518.518,0,0,0,.337.229c.114.01,9.476,1.538,8.725,7.436Z" transform="translate(-26.92 -30.226)"/>
  <path id="Tracé_140" data-name="Tracé 140" d="M67.763,55.834a10.09,10.09,0,0,0-6.77-2.356,9.981,9.981,0,0,0-3.316.512,6.036,6.036,0,0,0-3.42,2.9,5.366,5.366,0,0,0-.579,1.643,1.841,1.841,0,0,0,.4,1.485,2.067,2.067,0,0,0,1.552.71c.39,0,.8.017,1.313.017H67.6c.32,0,.589,0,.845-.017a1.5,1.5,0,0,0,1.347-.636C70.735,58.621,67.793,55.861,67.763,55.834Zm-7.332,3.878H55.654a1.05,1.05,0,0,1-.791-.337.815.815,0,0,1-.168-.673,4.339,4.339,0,0,1,.475-1.347,5.006,5.006,0,0,1,2.848-2.393,8.507,8.507,0,0,1,2.414-.424Zm8.486-.148c-.037.064-.2.141-.535.158H65.757l-4.3-.01V54.528a7.981,7.981,0,0,1,6.951,3.642C68.975,59.039,69,59.456,68.918,59.564Z" transform="translate(-35.591 -35.475)"/>
  <path id="Tracé_141" data-name="Tracé 141" d="M29.4,73.59a.572.572,0,0,0,.2-.434.545.545,0,0,0-.135-.36.562.562,0,0,0-.791-.061,3.366,3.366,0,0,0,0,5.174.562.562,0,0,0,.791-.067.552.552,0,0,0,.135-.364.569.569,0,0,0-.2-.431,2.249,2.249,0,0,1,0-3.447Z" transform="translate(-18.222 -48.16)"/>
  <path id="Tracé_142" data-name="Tracé 142" d="M20.85,68.454a.562.562,0,0,0,.2-.431.576.576,0,0,0-.131-.364.569.569,0,0,0-.794-.067,5.622,5.622,0,0,0,0,8.621.562.562,0,0,0,.794-.067.545.545,0,0,0,.131-.364.572.572,0,0,0-.2-.431,4.494,4.494,0,0,1,0-6.9Z" transform="translate(-12.014 -44.752)"/>
  <path id="Tracé_143" data-name="Tracé 143" d="M27.1,0A27.1,27.1,0,1,0,54.2,27.1,27.1,27.1,0,0,0,27.1,0Zm0,53.188A26.089,26.089,0,1,1,53.188,27.1,26.089,26.089,0,0,1,27.1,53.188Z"/>
</svg>
