<svg id="icon-clim-auto" xmlns="http://www.w3.org/2000/svg" width="54.198" height="54.198" viewBox="0 0 54.198 54.198">
  <path id="Tracé_170" data-name="Tracé 170" d="M74.834,103.5l-2.114,6.228h1.222l.444-1.417h2.356l.448,1.417h1.259L76.335,103.5Zm1.612,3.871H74.689l.084-.266c.475-1.511.741-2.424.794-2.73l.037.185c.03.118.114.4.246.855s.3,1.01.515,1.683Z" transform="translate(-48.24 -68.659)"/>
  <path id="Tracé_171" data-name="Tracé 171" d="M71.912,64.511a2.77,2.77,0,0,0,.3-2.3,2.929,2.929,0,0,0-1.724-1.74,32.654,32.654,0,0,0-4.326-.892,4.608,4.608,0,0,0-1.448-2.693c.653-1.727,1.4-4.787.259-6.059s-3.612-1.707-5.019-1.707h-.337a2.784,2.784,0,0,0-2.07,1.044,2.925,2.925,0,0,0-.481,2.4,32.575,32.575,0,0,0,1.683,4.087,4.608,4.608,0,0,0-1.683,2.673c-1.171.189-3.858.734-4.622,1.478-1.683,1.639-.431,5.285.219,6.43a2.693,2.693,0,0,0,2.356,1.458,3.077,3.077,0,0,0,1.855-.673A32.991,32.991,0,0,0,59.9,64.6a4.915,4.915,0,0,0,1.767.337h0a5.049,5.049,0,0,0,1.384-.192c1.737,2.232,3.03,3.275,4.077,3.279a5.122,5.122,0,0,0,3.39-1.777A8.662,8.662,0,0,0,71.912,64.511Zm-4.787,2.437c-.394,0-1.37-.414-3.461-3.164l-.246-.337-.374.148a3.807,3.807,0,0,1-1.377.249,3.733,3.733,0,0,1-1.683-.39l-.4-.209-.266.367a34.716,34.716,0,0,1-3.057,3.535,2.02,2.02,0,0,1-1.212.458,1.683,1.683,0,0,1-1.437-.922c-.576-1.01-1.542-4.04-.4-5.144a13.2,13.2,0,0,1,4.407-1.246l.407-.054.037-.387a3.541,3.541,0,0,1,1.663-2.582l.428-.263-.232-.441a34.029,34.029,0,0,1-1.788-4.211,1.889,1.889,0,0,1,.279-1.549,1.734,1.734,0,0,1,1.3-.63h.252c1.256,0,3.393.417,4.225,1.347.673.764.226,3.366-.589,5.319l-.158.377.337.246a3.568,3.568,0,0,1,1.394,2.622l.007.438.444.047a34.365,34.365,0,0,1,4.454.865A1.882,1.882,0,0,1,71.2,62.545,1.74,1.74,0,0,1,71,63.976a7.527,7.527,0,0,1-1.215,1.495A4.287,4.287,0,0,1,67.125,66.948Z" transform="translate(-34.229 -32.585)"/>
  <path id="Tracé_172" data-name="Tracé 172" d="M77.652,76.58A1.922,1.922,0,1,0,79.574,78.5,1.922,1.922,0,0,0,77.652,76.58Zm0,2.784a.862.862,0,1,1,.862-.862A.862.862,0,0,1,77.652,79.364Z" transform="translate(-50.237 -50.801)"/>
  <path id="Tracé_173" data-name="Tracé 173" d="M107.6,67.434a.506.506,0,1,0-.912.438c.165.337,3.912,8.53-5.9,16.057.027-.037.054-.067.074-.091l.542-2.255a.589.589,0,0,0-.387-.673.444.444,0,0,0-.616.293l-.855,3.551a.575.575,0,0,0,0,.151h0a.542.542,0,0,0,.047.175.056.056,0,0,0,.027.047.391.391,0,0,0,.081.114.4.4,0,0,0,.037.04v.02a.727.727,0,0,0,.135.091h0a.569.569,0,0,0,.165.044h.024l3.7.252a.434.434,0,0,0,.475-.478.613.613,0,0,0-.552-.545l-1.989-.135-.148.047C111.837,76.6,107.639,67.538,107.6,67.434Z" transform="translate(-66.028 -44.543)"/>
  <path id="Tracé_174" data-name="Tracé 174" d="M40.286,86.278c-.367-.111-8.927-2.861-7.884-15.169v.1l1.3,1.922a.592.592,0,0,0,.747.158.448.448,0,0,0,.229-.65l-2.047-3.03a.528.528,0,0,0-.1-.108h0a.569.569,0,0,0-.162-.084h-.054a.471.471,0,0,0-.138,0,.286.286,0,0,0-.054,0h-.027a.5.5,0,0,0-.158.04h0a.468.468,0,0,0-.145.094h-.02l-2.693,2.558a.434.434,0,0,0,.034.673.606.606,0,0,0,.771-.037l1.431-1.394.071-.162C30.372,84.2,39.9,87.218,40,87.245a.421.421,0,0,0,.145.024.5.5,0,0,0,.145-.99Z" transform="translate(-19.193 -46.048)"/>
  <path id="Tracé_175" data-name="Tracé 175" d="M48.169,39.4a.488.488,0,0,0,.283.091.508.508,0,0,0,.417-.219c.219-.337,5.433-7.642,16.832-2.919h-.1l-2.225.673A.589.589,0,0,0,63,37.7a.448.448,0,0,0,.562.39l3.5-1.037a.458.458,0,0,0,.135-.067h0a.529.529,0,0,0,.128-.131.141.141,0,0,0,.03-.047.525.525,0,0,0,.057-.125.442.442,0,0,0,0-.05v-.027a.653.653,0,0,0,0-.162h0a.522.522,0,0,0-.047-.165v-.024l-1.629-3.326a.428.428,0,0,0-.6-.229.6.6,0,0,0-.2.741l.875,1.8.114.1c-12.078-4.895-17.841,3.272-17.892,3.366a.5.5,0,0,0,.138.69Z" transform="translate(-31.808 -21.662)"/>
  <path id="Tracé_176" data-name="Tracé 176" d="M27.1,0A27.1,27.1,0,1,0,54.2,27.1,27.1,27.1,0,0,0,27.1,0Zm0,53.188A26.089,26.089,0,1,1,53.188,27.1,26.089,26.089,0,0,1,27.1,53.188Z"/>
</svg>
